<?xml version="1.0" encoding="UTF-8"?>
<svg id="Layer_1" data-name="Layer 1" xmlns="http://www.w3.org/2000/svg" viewBox="0 0 493.57 215.4">
  <defs>
    <style>
      .cls-1 {
        fill: #fff;
      }
    </style>
  </defs>
  <path class="cls-1" d="m77.02,168.62c-3.73,10.81-7.29,21.69-11.23,32.42-4.86,13.25-19.41,18.45-31.05,10.81-3.21-2.11-6.43-5.71-7.54-9.29-7.82-25.06-15.1-50.29-22.53-75.47-.08-.26.08-.59.13-.86,4.39,4.81,8.53,9.9,13.23,14.4,12.38,11.85,26.72,19.35,44.43,18.22,13.97-.89,25.9-6.74,36.24-15.91,9.96-8.83,17.58-19.42,23.37-31.42,8.89-18.44,17.77-36.86,30.27-53.3,21.69-28.52,49.1-48.27,84.54-55.8,24.79-5.27,48.4-2.12,70.17,11.24,16.1,9.88,25.86,24.37,29.23,42.99.54,2.97.9,6.23.2,9.07-.54,2.17-2.56,4.92-4.51,5.53-1.95.61-5.48-.39-6.84-1.96-5.02-5.78-10.36-10.76-17.98-12.82-.83-.22-1.52-1.39-2.04-2.27-9.93-16.72-24.98-25.32-44-26.59-37.36-2.51-65.09,14.22-85.23,44.61-12.62,19.05-19.2,40.84-26.25,62.3-6.48,19.73-12.31,39.67-18.49,59.49-1.04,3.34-2.06,6.76-3.63,9.87-3.87,7.7-10.43,11.52-18.96,11.24-8.6-.27-14.76-4.58-17.82-12.76-3.69-9.86-7.21-19.79-10.83-29.69-.51-1.38-1.12-2.73-1.68-4.09-.4,0-.8.02-1.21.03Z"/>
  <path class="cls-1" d="m436.03,151.34c8.52,6.21,14.87,14.81,15.27,26.74.58,17.31-13.62,33.91-31.26,34.7-20.89.93-41.85.33-62.79.37-.27,0-.53-.23-1.05-.47v-58.18c5.12-.12,9.86-2.68,14.74,1.5,2.9,2.48,7.86.55,10.04-2.67,2.51-3.72,1.93-8.78-1.34-11.69-3-2.66-8.22-3.34-10.36-.26-3.5,5.05-8.04,3.65-12.93,3.63v-53.12c1.04-.13,1.92-.33,2.8-.33,18.49.02,36.99-.3,55.47.19,22.3.59,37.51,21.39,30.91,42.43-1.89,6.03-6.19,11.3-9.51,17.15Zm-47.28,33.96c7.04,0,13.57.12,20.1-.04,5.99-.15,9.79-3.82,9.92-9.21.13-5.75-3.39-9.74-9.53-10.11-6.24-.37-12.51-.27-18.77-.3-.64,0-1.27.51-1.71.7v18.96Zm.07-47.01c6.76,0,13.31.32,19.8-.11,4.47-.3,7.09-4.08,7.06-8.7-.03-4.7-2.51-8.39-7.05-8.72-6.48-.48-13.03-.12-19.81-.12v17.66Z"/>
  <path class="cls-1" d="m493.55,152.77c0,14.68.05,29.36-.02,44.04-.05,10.33-6.62,17.43-16,17.51-9.35.09-16.62-6.96-16.69-17.01-.2-29.97-.23-59.95-.09-89.92.05-9.47,7.12-15.93,16.54-15.94,9.15,0,16.08,6.83,16.17,16.35.13,14.99.04,29.97.04,44.96h.04Z"/>
  <path class="cls-1" d="m343.02,145.18c-19.83-1.14-37.98-5.56-53.7-17.35-8.21-6.15-8.06-3.26-4.02-13.77,5.87-15.29,16.68-22.19,30.41-20,14.8,2.36,26.41,14.85,27.25,29.8.38,6.83.07,13.7.07,21.32Z"/>
  <path class="cls-1" d="m47.38,148.55c4.54-15.59,8.96-31.12,13.6-46.58,1.87-6.22,7.44-9.93,14.34-10.12,7.2-.2,12.58,2.85,14.84,9.22,3.11,8.77,5.81,17.68,8.52,26.59.33,1.1.07,2.89-.65,3.73-13.35,15.38-30.2,21.29-49.63,17.79-.41-.07-.77-.46-1.02-.62Z"/>
  <path class="cls-1" d="m45.96,148.72c-11.15-3.1-20.12-7.92-27.37-15.3-5.64-5.74-10.83-12.04-15.49-18.61-6.69-9.43-2.11-20.03,9.28-22.59,7.35-1.65,15.31,1.56,17.61,8.11,5.49,15.67,10.45,31.53,15.97,48.38Z"/>
  <path class="cls-1" d="m343.03,156.28c0-.55-.35-1.09-.6-1.79-2.1-.1-4.08-.12-6.04-.3-25.9-2.43-48.63-11.6-66.1-31.59-7.99-9.14-12.45-19.89-13.07-32.07-.85-16.82,10.01-31.2,25.89-33.97,3.83-.67,7.87-.1,12.87-.1-4.33-6.55-9.46-10.29-15.22-13.18-14.79-7.42-30.36-7.83-46.06-4.04-21.63,5.22-37.44,18.73-49.67,36.75-10.74,15.83-17.24,33.65-23.53,51.54-.85,2.43-1.93,4.97-1.95,7.47-.19,21.4-.26,42.81-.12,64.21.04,5.91,3.04,10.51,8.37,13.29,11.24,5.88,23.65-1.67,23.77-14.7.2-20.49.07-40.98.06-61.46,0-6.12-.11-12.23-.03-18.35.05-3.96,2.24-6.29,6.16-6.66,3.5-.33,6.02,2.24,6.39,6.32.15,1.67.07,3.36.08,5.04.04,25.07,0,50.15.16,75.22.07,9.83,7.17,16.84,16.35,16.69,9.38-.15,15.97-7,16.01-16.96.06-12.54-.09-25.07-.13-37.61,0-1.07.16-2.14.35-4.39,1.25,2.67,1.98,4.16,2.66,5.68,6.38,14.21,12.78,28.41,19.13,42.63,3.09,6.92,8.15,11,15.95,10.91,7.68-.09,11.66-4.86,14.37-11.45,6.21-15.11,12.62-30.15,18.96-45.2.41-.98.97-1.89,1.46-2.83.69,14.14.63,28.04.71,41.95.04,6.76,2.7,12.24,8.86,15.46,10.78,5.64,23.43-1.5,23.83-13.86.46-14.2.14-28.43.13-42.65Zm-144.38-56.8c-5.29,0-9.58-4.29-9.58-9.58s4.29-9.58,9.58-9.58,9.58,4.29,9.58,9.58-4.29,9.58-9.58,9.58Z"/>
</svg>